<?xml version="1.0" standalone="no"?>
<!DOCTYPE svg PUBLIC "-//W3C//DTD SVG 20010904//EN"
 "http://www.w3.org/TR/2001/REC-SVG-20010904/DTD/svg10.dtd">
<svg version="1.0" xmlns="http://www.w3.org/2000/svg"
 width="225.000000pt" height="225.000000pt" viewBox="0 0 225.000000 225.000000"
 preserveAspectRatio="xMidYMid meet">
<metadata>
Created by potrace 1.14, written by Peter Selinger 2001-2017
</metadata>
<g transform="translate(0.000000,225.000000) scale(0.100000,-0.100000)"
fill="#000000" stroke="none">
<path d="M563 1683 c-298 -301 -541 -548 -540 -549 5 -4 856 92 862 97 3 4
-66 105 -155 224 -89 119 -160 219 -157 222 3 2 104 -70 224 -160 177 -135
219 -163 225 -149 3 9 20 152 37 317 53 515 55 535 61 535 4 0 15 -75 24 -167
48 -446 75 -696 78 -698 5 -5 442 321 445 331 4 13 -530 544 -547 544 -8 0
-259 -246 -557 -547z"/>
<path d="M1848 1173 c7 -3 16 -2 19 1 4 3 -2 6 -13 5 -11 0 -14 -3 -6 -6z"/>
<path d="M30 1113 c0 -4 119 -127 265 -273 179 -179 268 -261 275 -254 26 26
327 439 322 441 -4 1 -182 21 -397 43 -214 22 -407 43 -427 46 -21 3 -38 2
-38 -3z"/>
<path d="M1818 1073 c7 -3 16 -2 19 1 4 3 -2 6 -13 5 -11 0 -14 -3 -6 -6z"/>
<path d="M809 744 c-112 -86 -211 -163 -219 -170 -13 -12 20 -48 250 -279 146
-146 268 -265 271 -265 3 0 2 27 -2 59 -5 33 -16 129 -24 213 -37 366 -62 589
-67 593 -3 3 -97 -65 -209 -151z"/>
<path d="M1220 896 c0 -11 -60 -570 -75 -698 -8 -70 -15 -137 -15 -150 0 -18
61 38 269 246 149 149 268 273 265 277 -2 4 -88 69 -192 145 -103 76 -202 149
-219 162 -18 13 -33 22 -33 18z"/>
</g>
</svg>
